<svg xmlns="http://www.w3.org/2000/svg" xmlns:xlink="http://www.w3.org/1999/xlink" version="1.0" x="0px" y="0px" viewBox="0 0 321.6 24.1" style="enable-background:new 0 0 321.6 24.1;" xml:space="preserve" width="392"  height="29" >
<style type="text/css">
	.st0{display:none;}
	.st1{display:inline;}
	.st2{fill:#FFFFFF;}
	.st3{fill:#003087;}
	.st4{fill:#009CDE;}
	.st5{fill:#012169;}
	.st6{fill:#373737;}
	.st7{fill:#2778B3;}
	.st8{fill:#074578;}
	.st9{fill:#016FD0;}
	.st10{fill-rule:evenodd;clip-rule:evenodd;fill:#FFFFFF;}
	.st11{fill-rule:evenodd;clip-rule:evenodd;fill:#016FD0;}
	.st12{fill:#F59E21;}
	.st13{fill:#E41322;}
	.st14{fill:#EB611D;}
	.st15{fill:url(#SVGID_1_);}
	.st16{fill:url(#SVGID_2_);}
	.st17{fill:url(#SVGID_3_);}
	.st18{fill:url(#SVGID_4_);}
	.st19{fill:url(#SVGID_5_);}
	.st20{fill:url(#SVGID_6_);}
	.st21{fill:url(#SVGID_7_);}
	.st22{fill:url(#SVGID_8_);}
	.st23{fill:url(#SVGID_9_);}
	.st24{fill:url(#SVGID_10_);}
</style>
<g id="BLACK" class="st0">
	<rect y="0" class="st1" width="321.6" height="24.1"/>
</g>
<g id="WHITE_x5F_BOARDER">
</g>
<g id="Layer_1">
	<path class="st2" d="M212.2,2.8h-26.7c-0.6,0-1.2,0.5-1.2,1.2v16.3c0,0.7,0.5,1.2,1.2,1.2h26.7c0.7,0,1.2-0.5,1.2-1.2V4   C213.4,3.3,212.9,2.8,212.2,2.8z"/>
	<g>
		<path class="st6" d="M198.9,11.2c0.5,0.5,0.5,1.4,0,1.9c-0.2,0.2-0.6,0.4-0.9,0.4c-0.2,0-0.5-0.1-0.6-0.3l0,0v1.5l-0.7,0.2v-4h0.7    v0.2l0,0c0.2-0.2,0.4-0.2,0.6-0.2C198.4,10.8,198.7,10.9,198.9,11.2 M198.7,12.1c0-0.4-0.3-0.7-0.7-0.7s-0.7,0.3-0.7,0.7    c0,0.4,0.3,0.7,0.7,0.7C198.4,12.8,198.7,12.5,198.7,12.1"/>
		<path class="st6" d="M200,13.1c-0.5-0.5-0.5-1.4,0-1.9c0.2-0.2,0.6-0.4,0.9-0.4c0.2,0,0.5,0.1,0.6,0.3l0,0v-0.2h0.7v2.6h-0.7v-0.2    l0,0c-0.2,0.2-0.4,0.2-0.6,0.2C200.6,13.5,200.2,13.3,200,13.1 M200.3,12.1c0,0.4,0.3,0.7,0.7,0.7s0.7-0.3,0.7-0.7    c0-0.4-0.3-0.7-0.7-0.7S200.3,11.8,200.3,12.1"/>
		<path class="st6" d="M200,13.1c-0.5-0.5-0.5-1.4,0-1.9c0.2-0.2,0.6-0.4,0.9-0.4c0.2,0,0.5,0.1,0.6,0.3l0,0v-0.2h0.7v2.6h-0.7v-0.2    l0,0c-0.2,0.2-0.4,0.2-0.6,0.2C200.6,13.5,200.2,13.3,200,13.1 M200.3,12.1c0,0.4,0.3,0.7,0.7,0.7s0.7-0.3,0.7-0.7    c0-0.4-0.3-0.7-0.7-0.7S200.3,11.8,200.3,12.1"/>
		<polygon class="st6" points="202.9,14.9 203.5,13.4 202.5,10.9 203.3,10.9 203.9,12.5 204.5,10.9 205.3,10.9 203.7,14.9   "/>
		<polygon class="st6" points="202.9,14.9 203.5,13.4 202.5,10.9 203.3,10.9 203.9,12.5 204.5,10.9 205.3,10.9 203.7,14.9   "/>
		<path class="st6" d="M186.8,13.4c-0.7,0-1.3-0.6-1.3-1.3s0.6-1.3,1.3-1.3c0.4,0,0.7,0.2,0.8,0.3l0.1,0v-0.3h0.4v2.5h-0.4v-0.3    l-0.1,0C187.5,13.3,187.2,13.4,186.8,13.4 M186.8,11.2c-0.5,0-0.9,0.4-0.9,0.9c0,0.5,0.4,0.9,0.9,0.9c0.5,0,0.9-0.4,0.9-0.9    c0,0,0,0,0,0C187.7,11.6,187.3,11.2,186.8,11.2"/>
		<path class="st6" d="M188.9,13.4v-2.1h-0.4v-0.4h0.4v-0.7c0-0.4,0.4-0.8,0.8-0.8c0,0,0,0,0,0h0.5l-0.1,0.4h-0.4    c-0.2,0-0.4,0.2-0.4,0.4v0.7h0.8v0.4h-0.8v2.1H188.9z"/>
		<path class="st6" d="M191.6,13.4c-0.4,0-0.8-0.4-0.8-0.8v-1.3h-0.4v-0.4h0.4V9.4h0.4v1.5h0.8v0.4h-0.8v1.3c0,0.2,0.2,0.4,0.4,0.4    h0.4l0.1,0.4H191.6z"/>
		<path class="st6" d="M193.4,13.4c-0.3,0-0.6-0.1-0.8-0.4c-0.2-0.2-0.3-0.5-0.3-0.8c0,0,0-0.1,0-0.1c0-0.1,0-0.2,0-0.3    c0-0.2,0.2-0.4,0.3-0.6c0.4-0.5,1.1-0.5,1.6-0.1c0,0,0.1,0.1,0.1,0.1c0.2,0.2,0.3,0.4,0.3,0.6c0,0.1,0,0.2,0,0.4h-2v0    c0.1,0.4,0.4,0.8,0.8,0.8c0.2,0,0.5-0.1,0.6-0.3l0.3,0.2c-0.1,0.1-0.2,0.2-0.3,0.2C193.9,13.4,193.6,13.4,193.4,13.4 M193.4,11.3    c-0.3,0-0.6,0.2-0.7,0.6l0,0l0,0h1.5l0-0.1C194,11.5,193.7,11.3,193.4,11.3"/>
		<path class="st6" d="M195,13.4v-2.5h0.4v0.3l0.1-0.1c0.1-0.2,0.6-0.3,0.9-0.3l-0.1,0.4c-0.5,0-0.8,0.4-0.8,0.8v1.3L195,13.4z"/>
		<path class="st7" d="M208.9,11.6l0.7-0.4c-0.1-0.1-0.1-0.1-0.1-0.2c-0.1-0.1,0-0.2,0.1-0.2c0.5,0,0.9,0,1.4,0    c0.1,0,0.2,0.1,0.1,0.2c-0.2,0.4-0.5,0.8-0.7,1.2c-0.1,0.1-0.1,0.1-0.2,0c-0.1-0.1-0.1-0.1-0.1-0.2l-0.7,0.4c0,0,0,0.1,0,0.1    c0.2,0.3,0.3,0.5,0.4,0.8c0.2,0.4,0.7,0.4,0.9,0.1c0,0,0.1-0.1,0.1-0.1c0.4-0.8,0.9-1.5,1.3-2.3c0-0.1,0.1-0.2,0.1-0.2    c0.1-0.3-0.1-0.6-0.4-0.7c0,0-0.1,0-0.1,0c-0.9,0-1.9,0-2.8,0c-0.3,0-0.6,0.2-0.6,0.5c0,0.1,0,0.2,0.1,0.3    c0.1,0.1,0.1,0.2,0.2,0.4C208.7,11.3,208.7,11.3,208.9,11.6"/>
		<path class="st8" d="M206.8,13.9c0-0.3,0-0.8,0-0.8s-0.1,0-0.3,0c-0.2,0-0.2-0.1-0.1-0.2c0.2-0.4,0.5-0.8,0.7-1.2    c0.1-0.1,0.1-0.1,0.2,0c0.2,0.4,0.5,0.8,0.7,1.2c0.1,0.1,0,0.2-0.1,0.2h-0.3v0.8h1c0.4,0,0.7-0.4,0.5-0.8c0,0,0-0.1-0.1-0.1    c-0.4-0.8-0.9-1.5-1.3-2.3c0-0.1-0.1-0.1-0.2-0.2c-0.2-0.2-0.6-0.2-0.8,0c0,0-0.1,0.1-0.1,0.1c-0.5,0.8-0.9,1.6-1.4,2.4    c-0.2,0.3-0.1,0.6,0.2,0.8c0.1,0,0.2,0.1,0.3,0.1C205.9,13.9,206.5,13.9,206.8,13.9"/>
	</g>
	<g>
		<path class="st2" d="M250.4,2.8h-26.7c-0.6,0-1.2,0.5-1.2,1.2v16.3c0,0.7,0.5,1.2,1.2,1.2h26.7c0.7,0,1.2-0.5,1.2-1.2V4    C251.6,3.3,251,2.8,250.4,2.8z"/>
		<g>
			<path class="st3" d="M229.1,9.2c-0.3-0.4-0.9-0.5-1.6-0.5h-2.2c-0.2,0-0.3,0.1-0.3,0.3l-0.9,5.7c0,0.1,0.1,0.2,0.2,0.2     c0,0,0,0,0,0h1.3l0.3-2.1l0,0.1c0-0.2,0.2-0.3,0.3-0.3h0.6c1.2,0,2.2-0.5,2.5-2c0,0,0-0.1,0-0.1C229.4,9.9,229.4,9.5,229.1,9.2"/>
			<path class="st4" d="M244,11.9c-0.1,0.5-0.5,0.5-0.9,0.5h-0.2l0.2-1c0-0.1,0.1-0.1,0.1-0.1h0.1c0.3,0,0.5,0,0.7,0.2     C244,11.6,244,11.7,244,11.9 M243.8,10.5h-1.5c-0.1,0-0.2,0.1-0.2,0.2l-0.6,3.8c0,0.1,0,0.1,0.1,0.1c0,0,0,0,0,0h0.8     c0.1,0,0.1-0.1,0.1-0.1l0.2-1.1c0-0.1,0.1-0.2,0.2-0.2h0.5c1,0,1.6-0.5,1.7-1.4c0.1-0.4,0-0.7-0.2-1     C244.7,10.6,244.3,10.5,243.8,10.5"/>
			<path class="st3" d="M233.3,11.9c-0.1,0.5-0.5,0.5-0.9,0.5h-0.2l0.2-1c0-0.1,0.1-0.1,0.1-0.1h0.1c0.3,0,0.5,0,0.7,0.2     C233.3,11.6,233.4,11.7,233.3,11.9 M233.2,10.5h-1.5c-0.1,0-0.2,0.1-0.2,0.2l-0.6,3.8c0,0.1,0,0.1,0.1,0.1c0,0,0,0,0,0h0.7     c0.1,0,0.2-0.1,0.2-0.2l0.2-1c0-0.1,0.1-0.2,0.2-0.2h0.5c1,0,1.6-0.5,1.7-1.4c0.1-0.4,0-0.7-0.2-1     C234,10.6,233.7,10.5,233.2,10.5 M236.6,13.3c-0.1,0.4-0.4,0.7-0.8,0.7c-0.2,0-0.4-0.1-0.5-0.2c-0.1-0.1-0.1-0.3-0.1-0.5     c0.1-0.4,0.4-0.7,0.8-0.7c0.2,0,0.4,0.1,0.5,0.2C236.6,12.9,236.7,13.1,236.6,13.3 M237.6,11.9h-0.7c-0.1,0-0.1,0-0.1,0.1l0,0.2     l-0.1-0.1c-0.2-0.2-0.5-0.3-0.8-0.3c-0.8,0-1.5,0.6-1.6,1.4c-0.1,0.4,0,0.8,0.3,1.1c0.2,0.3,0.5,0.4,0.9,0.4c0.6,0,1-0.4,1-0.4     l0,0.2c0,0.1,0,0.1,0.1,0.1c0,0,0,0,0,0h0.6c0.1,0,0.2-0.1,0.2-0.2l0.4-2.4C237.8,11.9,237.7,11.9,237.6,11.9     C237.6,11.9,237.6,11.9,237.6,11.9"/>
			<path class="st4" d="M247.3,13.3c-0.1,0.4-0.4,0.7-0.8,0.7c-0.2,0-0.4-0.1-0.5-0.2c-0.1-0.1-0.1-0.3-0.1-0.5     c0.1-0.4,0.4-0.7,0.8-0.7c0.2,0,0.4,0.1,0.5,0.2C247.3,12.9,247.3,13.1,247.3,13.3 M248.3,11.9h-0.7c-0.1,0-0.1,0-0.1,0.1l0,0.2     l-0.1-0.1c-0.2-0.2-0.5-0.3-0.8-0.3c-0.8,0-1.5,0.6-1.6,1.4c-0.1,0.4,0,0.8,0.3,1.1c0.2,0.3,0.5,0.4,0.9,0.4c0.6,0,1-0.4,1-0.4     l0,0.2c0,0.1,0,0.1,0.1,0.1c0,0,0,0,0,0h0.6c0.1,0,0.2-0.1,0.2-0.2l0.4-2.4C248.4,11.9,248.4,11.9,248.3,11.9     C248.3,11.9,248.3,11.9,248.3,11.9"/>
			<path class="st3" d="M241.4,11.9h-0.7c-0.1,0-0.1,0-0.2,0.1l-1,1.5l-0.4-1.4c0-0.1-0.1-0.1-0.2-0.1h-0.7c-0.1,0-0.1,0.1-0.1,0.1     c0,0,0,0,0,0l0.8,2.3l-0.7,1c0,0.1,0,0.1,0,0.2c0,0,0,0,0.1,0h0.7c0.1,0,0.1,0,0.2-0.1l2.4-3.4C241.6,12,241.6,11.9,241.4,11.9     C241.5,11.9,241.5,11.9,241.4,11.9"/>
			<path class="st4" d="M249.1,10.6l-0.6,3.9c0,0.1,0,0.1,0.1,0.1c0,0,0,0,0,0h0.6c0.1,0,0.2-0.1,0.2-0.2l0.6-3.8     c0-0.1,0-0.1-0.1-0.1c0,0,0,0,0,0h-0.7C249.2,10.5,249.1,10.5,249.1,10.6"/>
			<path class="st3" d="M229.1,9.2c-0.3-0.4-0.9-0.5-1.6-0.5h-2.2c-0.2,0-0.3,0.1-0.3,0.3l-0.9,5.7c0,0.1,0.1,0.2,0.2,0.2     c0,0,0,0,0,0h1.3l0.3-2.1l0,0.1c0-0.2,0.2-0.3,0.3-0.3h0.6c1.2,0,2.2-0.5,2.5-2c0,0,0-0.1,0-0.1C229.4,9.9,229.4,9.5,229.1,9.2"/>
			<path class="st3" d="M226.3,10.4c0-0.1,0.1-0.2,0.3-0.2h1.7c0.2,0,0.4,0,0.6,0c0.1,0,0.2,0,0.3,0.1c0.1,0,0.2,0.1,0.3,0.1     c0.1-0.5,0-0.9-0.3-1.2c-0.3-0.4-0.9-0.5-1.6-0.5h-2.2c-0.2,0-0.3,0.1-0.3,0.3l-0.9,5.7c0,0.1,0.1,0.2,0.2,0.2c0,0,0,0,0,0h1.3     l0.3-2.1L226.3,10.4z"/>
			<path class="st4" d="M229.4,10.4c0,0,0,0.1,0,0.1c-0.3,1.5-1.3,2-2.5,2h-0.6c-0.2,0-0.3,0.1-0.3,0.3l-0.3,2.1l-0.1,0.6     c0,0.1,0,0.2,0.1,0.2c0,0,0,0,0,0h1.1c0.1,0,0.2-0.1,0.3-0.2l0-0.1l0.2-1.3l0-0.1c0-0.1,0.1-0.2,0.3-0.2h0.2     c1.1,0,1.9-0.4,2.2-1.7c0.1-0.5,0.1-1-0.2-1.3C229.6,10.6,229.5,10.5,229.4,10.4"/>
			<path class="st5" d="M229.1,10.3c0,0-0.1,0-0.1,0c0,0-0.1,0-0.1,0c-0.2,0-0.4,0-0.6,0h-1.7c-0.1,0-0.2,0.1-0.3,0.2l-0.4,2.3     l0,0.1c0-0.2,0.2-0.3,0.3-0.3h0.6c1.2,0,2.2-0.5,2.5-2c0,0,0-0.1,0-0.1C229.3,10.4,229.2,10.3,229.1,10.3     C229.1,10.3,229.1,10.3,229.1,10.3"/>
		</g>
	</g>
	<path class="st2" d="M288.5,2.7h-26.7c-0.6,0-1.2,0.5-1.2,1.2v16.3c0,0.7,0.5,1.2,1.2,1.2h26.7c0.7,0,1.2-0.5,1.2-1.2V3.9   C289.7,3.3,289.2,2.7,288.5,2.7z"/>
	<g>
		<g>
			<g>
				<path d="M268.8,8.8c0.2-0.3,0.4-0.7,0.4-1.1c-0.4,0-0.8,0.2-1,0.5c-0.2,0.3-0.4,0.7-0.4,1.1C268.2,9.4,268.6,9.1,268.8,8.8"/>
				<path d="M269.2,9.4c-0.6,0-1.1,0.3-1.3,0.3c-0.3,0-0.7-0.3-1.1-0.3c-0.6,0-1.1,0.3-1.4,0.9c-0.6,1.1-0.2,2.6,0.4,3.5      c0.3,0.4,0.6,0.9,1.1,0.9c0.4,0,0.6-0.3,1.1-0.3c0.5,0,0.7,0.3,1.1,0.3c0.5,0,0.8-0.4,1.1-0.9c0.3-0.5,0.5-1,0.5-1      c0,0-0.9-0.4-0.9-1.4c0-0.9,0.7-1.3,0.8-1.3C270,9.5,269.4,9.4,269.2,9.4"/>
			</g>
			<g>
				<path d="M274.2,8.2c1.2,0,2.1,0.9,2.1,2.1c0,1.3-0.9,2.1-2.1,2.1h-1.4v2.2h-1V8.2L274.2,8.2L274.2,8.2z M272.8,11.6h1.1      c0.9,0,1.4-0.5,1.4-1.3c0-0.8-0.5-1.3-1.4-1.3h-1.2V11.6z"/>
				<path d="M276.6,13.3c0-0.8,0.6-1.3,1.7-1.4l1.3-0.1v-0.4c0-0.5-0.4-0.8-0.9-0.8c-0.6,0-0.9,0.3-1,0.7h-0.9      c0.1-0.8,0.8-1.5,1.9-1.5c1.1,0,1.9,0.6,1.9,1.5v3.2h-0.9v-0.8h0c-0.3,0.5-0.9,0.9-1.5,0.9C277.2,14.7,276.6,14.2,276.6,13.3z       M279.6,12.9v-0.4l-1.2,0.1c-0.6,0-0.9,0.3-0.9,0.7c0,0.4,0.3,0.7,0.9,0.7C279.1,14,279.6,13.5,279.6,12.9z"/>
				<path d="M281.4,16.4v-0.8c0.1,0,0.2,0,0.3,0c0.4,0,0.7-0.2,0.8-0.7c0,0,0.1-0.3,0.1-0.3L281,10h1l1.2,3.8h0l1.2-3.8h1l-1.8,4.9      c-0.4,1.1-0.9,1.5-1.8,1.5C281.7,16.4,281.5,16.4,281.4,16.4z"/>
			</g>
		</g>
	</g>
	<path class="st2" d="M174.1,2.8h-26.7c-0.6,0-1.2,0.5-1.2,1.2v16.3c0,0.7,0.5,1.2,1.2,1.2h26.7c0.7,0,1.2-0.5,1.2-1.2V4   C175.3,3.3,174.8,2.8,174.1,2.8z"/>
	<g id="UI_3_">
		<g id="Product---business-_x28_desktop_x29__3_" transform="translate(-676.000000, -1589.000000)">
			<g id="Page-1_3_">
				<path d="M830.4,1603.6h1.1v-5h-1.1V1603.6z M837.2,1600.7v-0.4h0l0,0h-0.9l0,0h-0.1v3.4h1v-1.8c0-0.5,0.6-0.7,1-0.6h0v-1      C837.7,1600.2,837.4,1600.4,837.2,1600.7L837.2,1600.7z M833.7,1602.8c-0.5,0-0.9-0.4-0.9-0.9c0-0.5,0.4-0.9,0.9-0.9      c0.5,0,0.9,0.4,0.9,0.9C834.7,1602.4,834.2,1602.8,833.7,1602.8L833.7,1602.8z M834.7,1600.4c-0.3-0.2-0.6-0.3-1-0.3      c-1,0-1.8,0.8-1.8,1.8s0.8,1.8,1.8,1.8c0.4,0,0.7-0.1,1-0.3v0.2h0.9v-3.4h-0.9V1600.4z M840.7,1600.1c-0.4,0-0.8,0.1-1,0.5v-0.4      h0l0,0h-0.9l0,0h-0.1v3.4h1v-1.8c0-0.5,0.3-0.8,0.8-0.8c0.4,0,0.7,0.3,0.7,0.8v1.8h1v-2.1      C842.1,1600.7,841.5,1600.1,840.7,1600.1L840.7,1600.1z M847.2,1602.4c-0.3,0-0.6,0.3-0.6,0.6s0.3,0.6,0.6,0.6      c0.3,0,0.6-0.3,0.6-0.6C847.8,1602.7,847.6,1602.4,847.2,1602.4L847.2,1602.4z M844.3,1602.8c-0.5,0-0.9-0.4-0.9-0.9      c0-0.5,0.4-0.9,0.9-0.9c0.5,0,0.9,0.4,0.9,0.9C845.3,1602.4,844.8,1602.8,844.3,1602.8L844.3,1602.8z M845.3,1600.4      c-0.3-0.2-0.6-0.3-1-0.3c-1,0-1.8,0.8-1.8,1.8s0.8,1.8,1.8,1.8c0.4,0,0.7-0.1,1-0.3v0.2h0.9v-3.4h-0.9V1600.4z M825.6,1603.6      h1.1v-5h-1.1V1603.6z M829.6,1598.5h-1.1c0,1.1-0.7,2.1-1.6,2.6l1.7,2.4h1.4l-1.5-2.2C829.2,1600.6,829.6,1599.6,829.6,1598.5      L829.6,1598.5z"/>
			</g>
		</g>
	</g>
	<g>
		<path class="st9" d="M136,2.8h-26.7c-0.6,0-1.2,0.5-1.2,1.2v16.3c0,0.7,0.5,1.2,1.2,1.2H136c0.7,0,1.2-0.5,1.2-1.2V4    C137.2,3.3,136.6,2.8,136,2.8z"/>
		<g>
			<path class="st10" d="M116.2,16.8v-3.6h3.8l0.4,0.5l0.4-0.5h13.7v0.4v1.2v0.5v1.2c0,0-0.4,0.2-0.8,0.2h-7.6l-0.5-0.6v0.6h-1.5v-1     c0,0-0.2,0.1-0.6,0.1H123v0.8h-2.3l-0.4-0.5l-0.4,0.5L116.2,16.8z"/>
			<path class="st10" d="M111.1,12.1l1.5-3.6h1.5l0.5,1.1V8.6h1.8l0.3,0.8l0.3-0.8h8.2V9c0,0,0.4-0.4,1.1-0.4l2.7,0l0.5,1.1V8.6h1.5     l0.4,0.6V8.6h1.5v3.6h-1.5l-0.4-0.6v0.6h-2.2l-0.2-0.6h-0.6l-0.2,0.6h-1.5c-0.6,0-1-0.4-1-0.4v0.4h-2.3l-0.5-0.6v0.6h-8.5     l-0.2-0.6h-0.6l-0.2,0.6H111.1l0.7-1.6L111.1,12.1z"/>
			<path class="st11" d="M112.9,9l-1.1,2.7h0.7l0.2-0.5h1.2l0.2,0.5h0.8L113.8,9H112.9L112.9,9z M113.4,9.6l0.4,0.9H113L113.4,9.6     L113.4,9.6z"/>
			<polygon class="st11" points="115,11.7 115,9 116.1,9 116.7,10.7 117.3,9 118.4,9 118.4,11.7 117.7,11.7 117.7,9.7 117,11.7      116.4,11.7 115.7,9.7 115.7,11.7 115,11.7    "/>
			<polygon class="st11" points="118.8,11.7 118.8,9 121,9 121,9.6 119.5,9.6 119.5,10.1 120.9,10.1 120.9,10.6 119.5,10.6      119.5,11.1 121,11.1 121,11.7 118.8,11.7    "/>
			<path class="st11" d="M121.4,9v2.7h0.7v-0.9h0.3l0.8,0.9h0.8l-0.9-1c0.4,0,0.7-0.3,0.7-0.8c0-0.6-0.4-0.9-0.9-0.9H121.4L121.4,9z      M122,9.6h0.8c0.2,0,0.3,0.1,0.3,0.3c0,0.2-0.2,0.3-0.3,0.3H122L122,9.6L122,9.6L122,9.6z"/>
			<polygon class="st11" points="124.7,11.7 124,11.7 124,9 124.7,9 124.7,11.7    "/>
			<path class="st11" d="M126.3,11.7h-0.1c-0.7,0-1.1-0.6-1.1-1.3c0-0.8,0.4-1.3,1.3-1.3h0.7v0.6h-0.8c-0.4,0-0.6,0.3-0.6,0.7     c0,0.5,0.3,0.7,0.7,0.7h0.2L126.3,11.7L126.3,11.7z"/>
			<path class="st11" d="M127.8,9l-1.1,2.7h0.7l0.2-0.5h1.2l0.2,0.5h0.8L128.7,9H127.8L127.8,9z M128.2,9.6l0.4,0.9h-0.7L128.2,9.6     L128.2,9.6z"/>
			<polygon class="st11" points="129.9,11.7 129.9,9 130.7,9 131.8,10.7 131.8,9 132.5,9 132.5,11.7 131.6,11.7 130.5,10      130.5,11.7 129.9,11.7    "/>
			<polygon class="st11" points="116.6,16.3 116.6,13.7 118.8,13.7 118.8,14.3 117.3,14.3 117.3,14.7 118.8,14.7 118.8,15.3      117.3,15.3 117.3,15.8 118.8,15.8 118.8,16.3 116.6,16.3    "/>
			<polygon class="st11" points="127.3,16.3 127.3,13.7 129.4,13.7 129.4,14.3 127.9,14.3 127.9,14.7 129.4,14.7 129.4,15.3      127.9,15.3 127.9,15.8 129.4,15.8 129.4,16.3 127.3,16.3    "/>
			<polygon class="st11" points="118.9,16.3 119.9,15 118.9,13.7 119.7,13.7 120.3,14.5 121,13.7 121.8,13.7 120.7,15 121.8,16.3      121,16.3 120.3,15.5 119.7,16.3 118.9,16.3    "/>
			<path class="st11" d="M121.9,13.7v2.7h0.7v-0.8h0.7c0.6,0,1-0.3,1-0.9c0-0.5-0.4-0.9-1-0.9H121.9L121.9,13.7z M122.6,14.3h0.7     c0.2,0,0.3,0.1,0.3,0.3c0,0.2-0.1,0.3-0.3,0.3h-0.7V14.3L122.6,14.3L122.6,14.3z"/>
			<path class="st11" d="M124.6,13.7v2.7h0.7v-0.9h0.3l0.8,0.9h0.8l-0.9-1c0.4,0,0.7-0.3,0.7-0.8c0-0.6-0.4-0.9-0.9-0.9L124.6,13.7     L124.6,13.7L124.6,13.7z M125.3,14.3h0.8c0.2,0,0.3,0.1,0.3,0.3c0,0.2-0.2,0.3-0.3,0.3h-0.8V14.3L125.3,14.3z"/>
			<path class="st11" d="M129.8,16.3v-0.6h1.3c0.2,0,0.3-0.1,0.3-0.2c0-0.1-0.1-0.2-0.3-0.2h-0.6c-0.5,0-0.8-0.3-0.8-0.8     c0-0.4,0.3-0.8,1-0.8h1.3l-0.3,0.6h-1.1c-0.2,0-0.3,0.1-0.3,0.2c0,0.1,0.1,0.2,0.2,0.2h0.6c0.6,0,0.8,0.3,0.8,0.8     c0,0.5-0.3,0.8-0.9,0.8L129.8,16.3L129.8,16.3z"/>
			<path class="st11" d="M132.2,16.3v-0.6h1.3c0.2,0,0.3-0.1,0.3-0.2c0-0.1-0.1-0.2-0.3-0.2h-0.5c-0.5,0-0.8-0.3-0.8-0.8     c0-0.4,0.3-0.8,1-0.8h1.3l-0.3,0.6h-1.1c-0.2,0-0.3,0.1-0.3,0.2c0,0.1,0.1,0.2,0.2,0.2h0.6c0.6,0,0.8,0.3,0.8,0.8     c0,0.5-0.3,0.8-0.9,0.8L132.2,16.3L132.2,16.3z"/>
		</g>
	</g>
	<path class="st2" d="M59.7,2.8H33c-0.6,0-1.2,0.5-1.2,1.2v16.3c0,0.7,0.5,1.2,1.2,1.2h26.7c0.7,0,1.2-0.5,1.2-1.2V4   C60.9,3.3,60.4,2.8,59.7,2.8z"/>
	<path class="st2" d="M97.9,2.8H71.1C70.5,2.8,70,3.3,70,4v16.3c0,0.7,0.5,1.2,1.2,1.2h26.7c0.7,0,1.2-0.5,1.2-1.2V4   C99,3.3,98.5,2.8,97.9,2.8z"/>
	<g>
		<path class="st12" d="M88.6,5.4c-1.5,0-3,0.5-4.1,1.4c1.6,1.2,2.6,3.1,2.6,5.3c0,2.1-1,4.1-2.6,5.3c1.1,0.9,2.5,1.4,4.1,1.4    c3.7,0,6.7-3,6.7-6.7C95.3,8.4,92.3,5.4,88.6,5.4z"/>
		<path class="st13" d="M81.9,12c0-2.1,1-4.1,2.6-5.3c-1.1-0.9-2.5-1.4-4.1-1.4c-3.7,0-6.7,3-6.7,6.7c0,3.7,3,6.7,6.7,6.7    c1.5,0,3-0.5,4.1-1.4C82.9,16.1,81.9,14.2,81.9,12z"/>
		<path class="st14" d="M87.1,12c0-2.1-1-4.1-2.6-5.3C82.9,8,81.9,9.9,81.9,12c0,2.1,1,4.1,2.6,5.3C86.1,16.1,87.1,14.2,87.1,12z"/>
	</g>
	<g>
		
			<linearGradient id="SVGID_1_" gradientUnits="userSpaceOnUse" x1="-715.5822" y1="1038.2845" x2="-715.5732" y2="1038.1813" gradientTransform="matrix(256 0 0 82.6684 183233.7656 -85816.9609)">
			<stop offset="0" style="stop-color:#222357"/>
			<stop offset="1" style="stop-color:#254AA5"/>
		</linearGradient>
		<path class="st15" d="M46.3,10.5c0,1.2,1,1.8,1.8,2.2c0.8,0.4,1.1,0.7,1.1,1c0,0.5-0.7,0.8-1.3,0.8c-1.1,0-1.7-0.3-2.1-0.5    l-0.4,1.8c0.5,0.2,1.4,0.4,2.3,0.4c2.2,0,3.6-1.1,3.6-2.8c0-2.1-3-2.3-2.9-3.2c0-0.3,0.3-0.6,0.9-0.7c0.3,0,1.1-0.1,2.1,0.4    l0.4-1.7c-0.5-0.2-1.2-0.4-2-0.4C47.8,7.9,46.3,9,46.3,10.5 M55.3,8c-0.4,0-0.7,0.2-0.9,0.6l-3.1,7.5h2.2l0.4-1.2h2.7l0.3,1.2h1.9    L57.1,8H55.3 M55.6,10.2l0.6,3h-1.7L55.6,10.2 M43.6,8l-1.7,8.1H44L45.7,8H43.6 M40.5,8l-2.2,5.5l-0.9-4.7C37.4,8.3,37,8,36.5,8    H33l0,0.2c0.7,0.2,1.6,0.4,2.1,0.7c0.3,0.2,0.4,0.3,0.5,0.7l1.7,6.5h2.2L42.7,8H40.5"/>
	</g>
</g>
</svg>