<svg xmlns:xlink="http://www.w3.org/1999/xlink" xmlns="http://www.w3.org/2000/svg" class="css-ze2te4 css-qd6ojx" viewBox="0 0 139.99999999999997 136.56337637289178" width="139.99999999999997"  height="136.56337637289178" ><g transform="translate(-26.889239508447602, -22.796555399122308) scale(1.9378234883881051)" class="css-1e98oqk" fill="#FFFFFF"><g xmlns="http://www.w3.org/2000/svg" fill="#FFFFFF"><path d="M49.999,11.764c-17.15,0-31.538,12.018-35.207,28.073l2.666-0.3c3.721-14.498,16.9-25.245,32.541-25.245   c18.523,0,33.594,15.07,33.594,33.594c0,4.663-0.957,9.106-2.683,13.146h2.724c1.6-4.077,2.488-8.51,2.488-13.146   C86.122,27.967,69.917,11.764,49.999,11.764" fill="#FFFFFF"></path><path d="M13.897,47.076c-0.006,0.27-0.021,0.538-0.021,0.81c0,10.479,4.489,19.928,11.644,26.533l0.601-2.934   c-5.773-5.839-9.418-13.777-9.688-22.552L13.897,47.076z" fill="#FFFFFF"></path><path d="M62.507,66.985l-3.825-11.933l12.261-11.204l3.854-3.523l-5.223-0.021l-16.605-0.063L46.101,25.12l-2.158-4.755   l-1.634,4.96L37.115,41.1l-16.502,1.858l-5.188,0.584l4.211,3.084l13.396,9.814L29.7,72.71l-1.049,5.115l4.238-3.052l13.473-9.71   l10.104,5.734l-12.8,8.082c-0.035,0.027-0.074,0.061-0.11,0.09c-0.77,0.69-0.833,1.874-0.141,2.646   c0.688,0.77,1.871,0.833,2.642,0.142l0.019-0.015l12.638-9.668l2.091,1.188l1.106,0.629l-7.818,5.078   c-0.028,0.024-0.06,0.049-0.087,0.075c-0.606,0.561-0.645,1.511-0.082,2.117c0.562,0.608,1.511,0.645,2.118,0.083l0.015-0.014   l7.757-6.263l1.533,0.871l-0.537-1.675l13.677-11.043l-14.249,9.258l-0.485-1.513l-0.68-2.123l15.833-12.109L62.507,66.985z    M46.231,62.646L31.697,73.119l3.595-17.548L20.84,44.983l17.803-2.003l5.602-17.017l7.408,16.311l17.913,0.069L56.34,54.431   l5.472,17.059L46.231,62.646z" fill="#FFFFFF"></path><polygon points="63.917,44.524 50.231,44.47 44.572,32.008 40.291,45.01 26.691,46.54 37.732,54.628 34.984,68.036 46.09,60.035    57.994,66.79 53.814,53.758  " fill="#FFFFFF"></polygon></g></g></svg>