<?xml version="1.0" encoding="UTF-8" standalone="no" ?>
<!DOCTYPE svg PUBLIC "-//W3C//DTD SVG 1.1//EN" "http://www.w3.org/Graphics/SVG/1.1/DTD/svg11.dtd">
<svg xmlns="http://www.w3.org/2000/svg" xmlns:xlink="http://www.w3.org/1999/xlink" version="1.1" width="1080" height="1080" viewBox="0 0 1080 1080" xml:space="preserve">
<desc>Created with Fabric.js 5.2.4</desc>
<defs>
</defs>
<g transform="matrix(1 0 0 1 540 540)" id="cd70c0fc-07e1-4888-8a72-46b95017954f"  >
<rect style="stroke: none; stroke-width: 1; stroke-dasharray: none; stroke-linecap: butt; stroke-dashoffset: 0; stroke-linejoin: miter; stroke-miterlimit: 4; fill: rgb(255,255,255); fill-rule: nonzero; opacity: 1; visibility: hidden;" vector-effect="non-scaling-stroke"  x="-540" y="-540" rx="0" ry="0" width="1080" height="1080" />
</g>
<g transform="matrix(1 0 0 1 540 540)" id="32210c3f-c706-4c78-b58b-befe3f7eccc4"  >
</g>
<g transform="matrix(1 0 0 1 540 540)"  >
<g style="" vector-effect="non-scaling-stroke"   >
		<g transform="matrix(1 0 0 1 0 0)"  >
<path style="stroke: rgb(251,251,251); stroke-width: 1; stroke-dasharray: none; stroke-linecap: butt; stroke-dashoffset: 0; stroke-linejoin: miter; stroke-miterlimit: 4; fill: rgb(251,251,251); fill-rule: evenodd; opacity: 1;" vector-effect="non-scaling-stroke"  transform=" translate(-560.26, -513.91)" d="M 691.898 412.25 C 687.222 415.346 663.355 462.294 664.38 466.379 C 665.106 469.271 669.298 470.933 671.832 469.334 C 672.67 468.806 678.68 457.761 685.188 444.789 C 691.697 431.818 697.758 420.923 698.657 420.578 C 702.0020000000001 419.294 704.7760000000001 423.286 716 445.53799999999995 C 722.325 458.078 728.264 468.8059999999999 729.197 469.37999999999994 C 731.745 470.9459999999999 736.425 468.98699999999997 736.825 466.18699999999995 C 737.3660000000001 462.407 713.613 415.56899999999996 709.606 412.513 C 705.136 409.104 696.835 408.97999999999996 691.898 412.25 M 644.883 471.487 C 641.244 472.223 633.519 473.303 627.716 473.887 C 597.138 476.964 590.806 480.902 591.82 496.213 C 591.94 498.01500000000004 594.1 501.17 598.25 505.60400000000004 L 604.5 512.2810000000001 L 605 528.432 L 605.5 544.5840000000001 L 608.777 548.719 C 612.808 553.8080000000001 618.25 556.0390000000001 627.2750000000001 556.303 C 630.9700000000001 556.412 633.9700000000001 556.949 633.955 557.5 C 633.941 558.05 633.268 562.55 632.4590000000001 567.5 C 626.9520000000001 601.228 626.7180000000001 606.631 630.552 611.657 C 636.83 619.888 642.37 619.9590000000001 657.423 611.998 C 665.2753807296251 607.8520373101534 673.137402031397 603.7243594597393 681.0089999999957 599.6150000000011 C 698.188 590.657 700.517 587.809 693.753 584.033 C 691.063 582.532 690.4970000000001 582.76 666.73 594.907 C 635.0790000000001 611.0830000000001 636.0450000000001 611.3720000000001 640.45 587.0360000000001 C 641.797 579.591 643.6500000000001 569 644.567 563.5 C 645.485 558 646.641 552.993 647.1370000000001 552.374 C 647.634 551.754 647.918 541.404 647.7700000000001 529.374 L 647.5000000000001 507.5 L 639.7500000000001 507.208 L 632.0000000000001 506.91600000000005 L 632.0000000000001 523.6990000000001 L 626.0770000000001 518.099 C 622.6480000000001 514.8580000000001 620.0160000000001 511.47200000000004 619.8270000000001 510.059 C 619.5900000000001 508.293 618.6480000000001 507.399 616.4160000000002 506.824 C 613.0840000000002 505.96500000000003 602.0000000000001 495.129 602.0000000000001 492.729 C 602.0000000000001 488.671 608.1740000000001 486.84 629.9540000000001 484.442 C 654.533 481.736 660.0000000000001 480.137 660.0000000000001 475.65500000000003 C 660.0000000000001 471.36400000000003 653.8600000000001 469.67100000000005 644.8830000000002 471.487 M 742.9860000000001 471.72200000000004 C 740.4960000000001 473.46600000000007 740.4250000000001 477.17 742.839 479.355 C 744.6590000000001 481.002 747.884 481.56 778.4380000000001 485.517 C 795.3530000000001 487.707 797.945 488.727 797.9850000000001 493.20799999999997 C 798.0000000000001 494.965 783.4200000000001 510.145 769.8130000000001 522.538 C 761.6520000000002 529.97 759.7320000000001 533.1 761.0950000000001 536.75 C 761.7330000000002 538.457 762.7280000000002 538.999 765.2180000000002 538.996 C 769.5780000000002 538.991 805.7090000000002 504.683 808.3780000000002 498.014 C 810.8790000000001 491.76300000000003 808.8430000000002 485.062 803.0000000000001 480.314 C 800.5120000000001 478.29200000000003 784.3370000000001 474.90900000000005 770.0000000000001 473.413 C 762.5750000000002 472.63800000000003 753.9060000000001 471.627 750.7360000000001 471.16700000000003 C 746.3480000000001 470.531 744.498 470.663 742.9860000000001 471.72200000000004 M 327.5 488.87 C 317.48 491.527 312 498.308 312 508.049 C 312 517.507 316.825 523.184 328.5 527.4639999999999 C 338.872 531.2669999999999 341.251 534.8399999999999 336.545 539.545 C 333.60200000000003 542.4889999999999 327.13100000000003 542.8539999999999 319.409 540.511 C 316.709 539.692 314.234 539.0169999999999 313.90999999999997 539.011 C 313.00899999999996 538.9939999999999 310.727 549.3349999999999 311.142 551.55 C 312.006 556.16 330.89 558.709 340.124 555.4609999999999 C 351.057 551.6159999999999 355.80100000000004 545.6189999999999 356.112 535.2499999999999 C 356.42600000000004 524.7729999999999 351.653 519.1669999999999 338.288 514.3149999999999 C 329.975 511.29799999999994 329 510.51199999999994 329 506.82699999999994 C 329 501.5659999999999 334.877 500.41099999999994 346.158 503.45399999999995 C 348.547 504.09799999999996 349.09000000000003 503.703 351.52500000000003 499.54699999999997 C 355.398 492.93999999999994 355.24100000000004 491.996 350.00000000000006 490.37199999999996 C 344.46200000000005 488.65599999999995 331.55500000000006 487.794 327.50000000000006 488.86999999999995 M 496.23 488.917 C 480.99 492.827 475.73900000000003 512.4159999999999 487.329 522.126 C 488.523 523.126 493.446 525.6 498.269 527.6229999999999 C 516.5070000000001 535.2719999999999 507.758 546.275 488.083 540.4319999999999 C 481.8 538.5659999999999 482.47 538.0769999999999 480.90400000000005 545.675 C 479.29300000000006 553.49 479.9630000000001 554.389 488.61500000000007 556.0219999999999 C 512.6490000000001 560.5569999999999 530.1360000000001 547.4329999999999 524.9480000000001 528.7529999999999 C 523.3840000000001 523.1199999999999 517.9340000000001 518.5039999999999 508.6200000000001 514.9229999999999 C 499.0990000000001 511.26299999999986 498.0000000000001 510.4979999999999 498.0000000000001 507.5329999999999 C 498.0000000000001 502.3609999999999 505.7750000000001 500.0629999999999 513.4270000000001 502.9719999999999 C 514.9140000000001 503.5379999999999 516.7010000000001 503.99999999999994 517.3990000000001 503.99999999999994 C 518.8720000000001 503.99999999999994 523.9880000000002 494.13199999999995 523.3610000000001 492.49899999999997 C 522.3000000000001 489.73299999999995 502.9880000000001 487.183 496.23000000000013 488.917 M 695.7080000000001 495.522 C 692.3040000000001 502.464 692.325 503 696.0000000000001 503 L 699.0000000000001 503 L 699.0000000000001 556.0840000000001 L 706.7500000000001 555.792 L 714.5000000000001 555.5 L 714.7880000000001 545 L 715.0760000000001 534.5 L 721.1350000000001 545.25 L 727.1940000000001 556 L 735.0970000000001 556 C 740.267 556 743.0000000000001 555.612 743.0000000000001 554.879 C 743.0000000000001 554.263 740.0750000000002 548.5740000000001 736.5000000000001 542.238 C 732.9250000000001 535.902 730.0000000000001 530.336 730.0000000000001 529.869 C 730.0000000000001 529.403 732.4750000000001 524.59 735.5000000000001 519.174 C 742.6210000000001 506.42499999999995 742.7170000000001 506.858 732.8480000000001 507.21 L 724.696 507.5 L 720.2710000000001 516.34 C 717.8380000000001 521.202 715.6750000000001 525.008 715.465 524.799 C 715.255 524.5889999999999 715.023 517.276 714.9490000000001 508.54699999999997 C 714.7790000000001 488.614 715.44 489.99999999999994 706.1010000000001 489.99999999999994 L 698.4170000000001 489.99999999999994 L 695.7080000000002 495.52199999999993 M 366.2 494.2 C 365.53999999999996 494.86 365 497.78499999999997 365 500.7 C 365 505.687 364.852 506 362.5 506 C 360.071 506 360 506.2 360 513 C 360 519.705 360.1 520 362.379 520 C 364.732 520 364.76300000000003 520.138 365.195 532.25 C 365.888 551.689 370.026 556.647 385.332 556.379 C 392.34999999999997 556.256 394.065 555.3580000000001 393.433 552.139 C 393.255 551.238 392.84 548.813 392.51 546.75 C 391.925 543.098 391.798 543 387.655 543 C 381.488 543 381 542.073 381 530.37 C 381 520.607 381.1 520.124 383.19 519.82 C 385.604 519.4670000000001 392.56 508.71600000000007 391.493 506.98800000000006 C 391.157 506.44500000000005 388.659 506.00000000000006 385.941 506.00000000000006 L 381 506.00000000000006 L 381 500.70000000000005 C 381 497.785 380.46 494.86000000000007 379.8 494.20000000000005 C 378.242 492.64200000000005 367.75800000000004 492.64200000000005 366.2 494.20000000000005 M 535.708 493.62600000000003 C 535.318 494.01500000000004 535 496.92800000000005 535 500.1 C 535 505.648 534.896 505.879 532.25 506.184 C 529.565 506.49300000000005 529.5 506.65200000000004 529.5 513 C 529.5 519.348 529.565 519.507 532.25 519.816 L 535 520.133 L 535 531.984 C 535 547.115 536.617 551.6220000000001 543.093 554.542 C 551.111 558.157 563.818 556.573 562.61 552.109 C 562.371 551.224 561.89 548.813 561.542 546.75 C 560.927 543.103 560.792 543 556.6550000000001 543 C 550.4830000000001 543 550.0000000000001 542.079 550.0000000000001 530.3 L 550.0000000000001 520 L 552.4860000000001 520 C 554.5190000000001 520 555.5200000000001 518.914 557.9860000000001 514.029 C 561.9600000000002 506.156 561.9120000000001 506 555.5480000000001 506 L 550.0950000000001 506 L 549.7980000000001 499.75 L 549.5000000000001 493.5 L 542.9580000000001 493.209 C 539.359 493.049 536.0970000000001 493.237 535.7080000000001 493.626 M 407 507.174 C 398.714 508.356 398.47 508.666 400.451 515.4789999999999 L 402.10200000000003 521.1589999999999 L 406.21500000000003 520.4639999999998 C 412.021 519.4829999999998 417.547 519.6869999999998 419.947 520.9719999999999 C 423.341 522.7879999999999 422.299 523.4929999999998 416.003 523.6379999999999 C 400.368 523.9999999999999 391.75399999999996 535.757 398.063 548.1239999999999 C 401.983 555.8069999999999 415.56 558.9099999999999 429.5 555.3089999999999 L 436.5 553.4999999999999 L 436.793 537.9999999999999 C 437.141 519.5969999999999 436.226 515.1559999999998 431.237 511.04399999999987 C 425.482 506.29999999999984 419.65200000000004 505.36899999999986 407 507.17399999999986 M 444.738 507.0869999999999 C 443.012 508.09199999999987 438 516.9289999999999 438 518.9669999999999 C 438 519.5349999999999 439.575 519.9999999999999 441.5 519.9999999999999 L 445 519.9999999999999 L 445 556.0879999999999 L 452.25 555.7939999999999 L 459.5 555.4999999999999 L 460.07 540.2769999999999 C 460.728 522.7149999999999 461.254 521.526 468.865 520.405 C 474.386 519.592 474.96500000000003 518.887 474.985 512.9499999999999 C 475.00800000000004 505.91399999999993 471.903 504.34299999999996 464.274 507.5299999999999 C 460.988 508.9029999999999 460.525 508.9029999999999 459.757 507.5299999999999 C 458.75 505.73099999999994 447.63100000000003 505.4029999999999 444.738 507.08699999999993 M 565.014 511.97099999999995 C 561.213 519.502 561.241 520 565.469 520 L 568.9380000000001 520 L 568.6510000000001 536.75 C 568.2950000000001 557.576 567.6440000000001 556 576.6070000000001 556 L 584 556 L 584 541.565 C 584 522.279 585.236 520 595.695 520 L 599.091 520 L 598.796 513.25 L 598.5 506.5 L 594.848 506.195 C 592.8399999999999 506.028 589.611 506.553 587.674 507.363 C 584.6469999999999 508.628 584.074 508.635 583.607 507.417 C 583.204 506.368 581.111 506 575.5459999999999 506 L 568.0289999999999 506 L 565.0139999999999 511.971 M 672.1839999999999 507.093 C 644.465 512.395 648.848 557 677.088 557 C 681.077 557 690.188 553.958 693.283 551.593 C 695.851 549.631 690.662 540.645 687.5 541.577 C 677.839 544.425 671.24 542.578 669.101 536.428 C 665.778 526.877 670.331 520 679.977 520 L 686.044 520 L 688.991 515.354 C 690.611 512.798 691.707 510.33500000000004 691.4259999999999 509.88100000000003 C 690.078 507.699 678.093 505.963 672.184 507.093 M 620 531.876 C 620 539.7239999999999 623.892 543.997 629.711 542.536 C 633.48 541.5899999999999 632.361 538.762 626 533.1629999999999 L 620 527.882 L 620 531.876 M 415.728 534.709 C 407.958 535.909 409.195 543.242 417.195 543.41 L 421.5 543.5 L 421.5 539.014 C 421.5 534.227 421.044 533.8870000000001 415.728 534.7090000000001 M 756.75 547.08 C 754.53 548.373 754.375 556.731 756.422 564.856 C 757.2040000000001 567.96 758.577 575.45 759.475 581.5 C 760.3720000000001 587.55 761.484 594.722 761.946 597.437 C 763.784 608.239 760.157 609.37 747.304 602 C 742.5079999999999 599.25 738.198 597 737.726 597 C 737.255 597 733.186 594.84 728.684 592.2 C 712.9889999999999 582.9960000000001 707.375 581.562 704.928 586.135 C 702.901 589.922 706.228 592.376 730.991 605.351 C 758.132 619.573 759.872 620.049 766.68 615.117 C 774.877 609.179 775.0079999999999 600.762 767.486 563.5 C 764.087 546.666 762.26 543.871 756.75 547.08" stroke-linecap="round" />
</g>
		<g transform="matrix(1 0 0 1 0.1 0.04)"  >
<path style="stroke: rgb(56,80,108); stroke-width: 1; stroke-dasharray: none; stroke-linecap: butt; stroke-dashoffset: 0; stroke-linejoin: miter; stroke-miterlimit: 4; fill: rgb(56,80,108); fill-rule: evenodd; opacity: 1;" vector-effect="non-scaling-stroke"  transform=" translate(-560.36, -513.95)" d="M 696.728 411.001 C 690.746 412.09799999999996 688.804 414.84499999999997 676.487 439.63199999999995 C 663.5749999999999 465.61799999999994 662.827 468.49999999999994 669 468.49999999999994 C 672.495 468.49999999999994 672.509 468.48199999999997 679.217 454.99999999999994 C 696.833 419.59299999999996 698.449 417.32499999999993 703.6 420.76499999999993 C 704.725 421.51699999999994 715.3100000000001 441.96199999999993 721.0360000000001 454.4459999999999 C 726.624 466.62799999999993 728.615 469.16599999999994 732.3000000000001 468.8099999999999 C 738.0430000000001 468.2539999999999 737.248 465.3959999999999 724.046 439.13299999999987 C 709.8140000000001 410.82099999999986 707.984 408.93699999999984 696.7280000000001 411.00099999999986 M 646 472.084 C 644.075 472.568 636.2 473.646 628.5 474.48 C 599.383 477.634 592.015 481.235 592.004 492.31600000000003 C 591.999 497.244 593.1220000000001 499.28400000000005 599.636 506.17600000000004 L 605 511.85200000000003 L 605 523.9830000000001 C 605 548.4570000000001 609.626 554.9950000000001 627.19 555.345 C 631.663 555.4340000000001 634.9670000000001 555.927 634.936 556.5 C 634.9060000000001 557.05 634.462 559.75 633.951 562.5 C 632.799 568.691 632.782 568.808 628.977 595.706 C 627.2669999999999 607.7950000000001 630.14 613.937 638.869 616.8530000000001 C 643.715 618.4720000000001 645.0690000000001 617.9430000000001 670.759 604.393 C 696.504 590.8140000000001 697.072 590.426 695.896 587.248 C 693.8779999999999 581.793 691.6519999999999 582.452 665.5 596.2610000000001 C 636.372 611.6400000000001 635.05 611.2650000000001 639.457 588.8710000000001 C 640.795 582.0670000000001 642.379 572.9000000000001 642.976 568.5000000000001 C 643.573 564.1000000000001 644.585 558.7000000000002 645.225 556.5000000000001 C 645.897 554.1880000000001 646.532 543.1120000000001 646.73 530.2500000000001 L 647.073 508.0000000000001 L 631.869 508.0000000000001 L 632.0880000000001 515.4960000000001 C 632.2090000000001 519.618 632.0620000000001 523.1060000000001 631.763 523.2460000000001 C 630.572 523.8020000000001 619 511.9040000000001 619 510.1230000000001 C 619 508.9030000000001 618.061 507.9810000000001 616.391 507.5620000000001 C 613.6909999999999 506.8840000000001 603.577 497.9470000000001 601.843 494.7070000000001 C 600.375 491.9630000000001 603.246 488.27100000000013 607.747 487.1140000000001 C 609.8109999999999 486.5830000000001 617.125 485.4230000000001 624 484.5340000000001 C 630.875 483.64600000000013 639.993 482.4620000000001 644.263 481.90300000000013 C 654.159 480.6080000000001 657.76 479.33300000000014 658.549 476.84500000000014 C 660.048 472.1220000000001 654.389 469.9760000000001 646 472.0840000000001 M 743.2 472.2000000000001 C 741.2650000000001 474.1350000000001 741.807 477.8330000000001 744.25 479.3630000000001 C 746.452 480.7410000000001 756.012 482.3420000000001 769 483.5080000000001 C 775.68 484.1070000000001 792.133 486.6790000000001 795.251 487.6120000000001 C 797.6379999999999 488.3260000000001 799.252 491.6290000000001 798.4499999999999 494.1570000000001 C 797.7689999999999 496.3020000000001 785.015 509.3650000000001 769.708 523.5960000000001 C 760.762 531.9130000000001 759.501 534.3580000000002 762.571 537.4290000000001 C 765.347 540.205 766.857 539.2400000000001 781.8050000000001 525.1320000000001 C 810.562 497.9920000000001 812.269 495.2540000000001 806.528 485.4580000000001 C 802.817 479.12500000000006 793.538 476.2220000000001 771.5 474.49700000000007 C 766.55 474.11000000000007 759.433 473.1650000000001 755.685 472.39700000000005 C 747.3409999999999 470.68700000000007 744.7539999999999 470.6460000000001 743.1999999999999 472.20000000000005 M 328 489.406 C 320.361 492.283 319.226 492.942 316.661 495.991 C 313.149 500.16499999999996 312.384 503.399 312.817 512.25 C 313.07800000000003 517.588 318.486 522.687 327.89300000000003 526.464 C 340.11 531.37 342.134 534.018 337.83900000000006 539.4770000000001 C 335.70000000000005 542.1970000000001 335.58700000000005 542.219 326.58900000000006 541.6870000000001 C 321.59000000000003 541.3910000000001 316.62200000000007 541.0030000000002 315.54800000000006 540.8240000000001 C 313.19900000000007 540.4340000000001 310.29900000000004 550.451 312.1240000000001 552.6500000000001 C 314.81200000000007 555.8880000000001 332.1840000000001 557.0250000000001 340.6350000000001 554.5160000000001 C 360.0400000000001 548.753 361.4140000000001 525.1700000000001 342.8150000000001 517.095 C 329.52800000000013 511.326 329.0490000000001 511.043 328.4400000000001 508.61800000000005 C 327.0410000000001 503.04300000000006 331.3810000000001 500.273 339.8040000000001 501.36400000000003 C 342.3870000000001 501.699 345.5340000000001 502.091 346.7970000000001 502.23600000000005 C 348.6050000000001 502.4440000000001 349.6640000000001 501.50200000000007 351.77400000000006 497.81100000000004 C 355.00300000000004 492.163 355.0450000000001 492.21400000000006 345.28800000000007 489.879 C 336.1770000000001 487.699 332.77900000000005 487.606 328.00000000000006 489.406 M 499.19000000000005 489.046 C 487.96500000000003 491.312 482.0450000000001 497.996 482.0160000000001 508.438 C 481.99300000000005 516.915 484.3880000000001 520.085 494.5730000000001 525.058 C 499.0130000000001 527.226 503.0910000000001 529 503.63400000000007 529 C 505.5370000000001 529 509.00000000000006 533.099 509.00000000000006 535.35 C 509.00000000000006 540.642 505.59400000000005 542.2710000000001 495.60600000000005 541.758 C 490.59800000000007 541.5 485.7540000000001 540.967 484.84200000000004 540.5730000000001 C 483.32900000000006 539.9190000000001 480.00000000000006 547.6430000000001 480.00000000000006 551.806 C 480.00000000000006 555.231 500.38200000000006 557.1940000000001 509.23300000000006 554.6210000000001 C 522.7470000000001 550.6920000000001 529.0630000000001 535.9280000000001 522.07 524.6140000000001 C 519.9250000000001 521.1430000000001 515.6840000000001 518.6200000000001 502.78700000000003 513.1460000000002 C 496.82000000000005 510.61300000000017 495.54100000000005 507.1890000000002 499.12800000000004 503.3500000000002 C 501.58200000000005 500.7240000000002 502.67800000000005 500.6500000000002 515.946 502.2120000000002 C 518.312 502.4910000000002 522.9350000000001 496.6900000000002 522.984 493.38200000000023 C 523.0210000000001 490.81700000000023 505.886 487.6950000000002 499.19000000000005 489.0460000000002 M 698.243 492.2500000000002 C 697.6930000000001 492.9380000000002 696.278 495.41300000000024 695.101 497.7500000000002 L 692.959 502.0000000000002 L 699 502.0000000000002 L 699 525.3750000000002 C 699 538.2310000000002 699.281 550.1560000000002 699.625 551.8750000000002 L 700.25 555.0000000000002 L 714 555.0000000000002 L 714 544.0000000000002 C 714 537.9500000000003 714.337 533.0010000000002 714.75 533.0020000000002 C 715.163 533.0040000000001 716.817 535.5910000000002 718.426 538.7520000000002 C 720.0350000000001 541.9140000000002 722.7280000000001 546.8620000000002 724.4100000000001 549.7500000000002 L 727.4670000000001 555.0000000000002 L 734.7340000000002 555.0000000000002 C 738.7300000000001 555.0000000000002 742.0000000000001 554.7250000000003 742.0000000000001 554.3880000000003 C 742.0000000000001 553.7490000000003 737.6310000000001 545.5470000000003 732.0650000000002 535.7380000000003 L 728.7960000000002 529.9770000000003 L 734.7860000000002 518.9880000000003 L 740.775 508 L 725.018 508 L 719.759 518.25 L 714.5 528.5 L 714.228 509.75 L 713.9559999999999 491 L 706.6 491 C 701.917 491 698.881 491.454 698.243 492.25 M 366.49800000000005 495.25 C 366.25700000000006 495.938 365.93300000000005 498.75 365.78000000000003 501.5 C 365.538 505.822 365.19500000000005 506.543 363.25000000000006 506.82 C 361.3310000000001 507.092 360.97800000000007 507.791 360.8500000000001 511.57 C 360.76700000000005 514.006 360.6550000000001 516.563 360.6000000000001 517.25 C 360.5450000000001 517.938 361.6860000000001 518.637 363.1360000000001 518.805 L 365.7720000000001 519.111 L 366.1900000000001 532.305 C 366.83100000000013 552.56 371.5500000000001 557.588 387.8840000000001 555.4209999999999 L 392.8360000000001 554.7639999999999 L 392.3530000000001 551.132 C 391.3150000000001 543.318 391.38100000000014 543.415 387.2860000000001 543.752 C 380.9980000000001 544.269 380.6380000000001 543.5649999999999 380.5650000000001 530.6189999999999 C 380.5000000000001 519.1159999999999 380.5070000000001 519.084 382.9410000000001 518.7919999999999 C 384.6050000000001 518.593 386.2530000000001 517.0659999999999 388.1130000000001 513.9999999999999 C 392.0070000000001 507.57999999999987 391.8320000000001 506.9999999999999 386.0000000000001 506.9999999999999 L 381.0000000000001 506.9999999999999 L 380.9860000000001 502.7499999999999 C 380.9600000000001 494.4489999999999 380.5680000000001 493.9999999999999 373.3520000000001 493.9999999999999 C 369.1210000000001 493.9999999999999 366.78800000000007 494.4259999999999 366.4980000000001 495.2499999999999 M 535.7980000000001 500.2499999999999 C 535.5150000000001 506.1779999999999 535.3640000000001 506.5159999999999 532.8520000000001 506.8069999999999 C 527.892 507.3809999999999 527.9080000000001 518.6199999999999 532.8690000000001 519.1949999999999 L 535.5000000000001 519.4999999999999 L 536.0000000000001 533.4999999999999 C 536.6860000000001 552.6959999999999 538.8690000000001 555.4889999999999 553.2000000000002 555.4959999999999 C 561.2580000000002 555.5009999999999 561.9090000000001 554.9269999999999 561.1160000000002 548.5169999999998 L 560.5000000000002 543.5349999999999 L 556.4250000000002 543.8309999999999 C 550.7050000000002 544.247 550.1480000000001 543.1039999999999 549.9240000000002 530.4689999999999 C 549.7310000000002 519.54 549.7390000000003 519.4989999999999 552.1600000000002 519.203 C 553.9650000000001 518.983 555.4310000000002 517.376 557.8620000000002 512.953 L 561.1350000000002 507 L 550 507 L 550 502.082 C 550 494.344 549.679 494 542.441 494 L 536.095 494 L 535.798 500.25 M 404.66200000000003 508.242 L 399.824 509.249 L 400.47700000000003 512.731 C 401.814 519.857 402.665 521.078 405.535 519.987 C 411.869 517.579 422.01000000000005 519.303 421.99100000000004 522.785 C 421.98300000000006 524.2099999999999 420.87600000000003 524.5319999999999 415.45000000000005 524.687 C 403.01700000000005 525.043 396.50100000000003 530.894 397.21200000000005 541.065 C 397.76300000000003 548.945 400.54800000000006 552.522 407.76900000000006 554.6210000000001 C 413.52900000000005 556.296 425.5490000000001 556.0780000000001 432.50000000000006 554.1730000000001 L 435.50000000000006 553.3500000000001 L 435.50000000000006 515.843 L 431.84400000000005 512.495 C 426.047 507.185 416.74600000000004 505.73 404.66200000000003 508.242 M 443.776 508.75 C 441.923 510.863 439 516.494 439 517.95 C 439 518.528 440.34 519 441.977 519 L 444.95399999999995 519 L 445.227 536.75 L 445.5 554.5 L 452.125 554.793 L 458.75 555.086 L 459.177 540.068 C 459.68 522.358 460.494 520.67 469.09900000000005 519.486 L 474.00000000000006 518.812 L 474.00000000000006 507 L 470.25000000000006 507.006 C 468.18800000000005 507.01 465.16200000000003 507.71 463.5280000000001 508.56199999999995 C 460.84100000000007 509.96299999999997 460.4460000000001 509.96199999999993 459.4170000000001 508.556 C 457.71600000000007 506.22999999999996 445.8560000000001 506.377 443.77600000000007 508.75 M 565.517 511.967 C 562.3130000000001 518.289 562.3530000000001 518.807 566.066 519.187 L 569.1320000000001 519.5 L 569.2740000000001 537.29 L 569.4150000000001 555.079 L 576.4580000000001 554.79 L 583.5000000000001 554.5 L 583.7110000000001 541 C 583.8260000000001 533.575 583.9530000000001 526.825 583.9920000000001 526 C 584.1440000000001 522.799 587.0670000000001 520.625 592.7410000000001 519.492 C 597.0630000000001 518.6289999999999 598.4790000000002 517.925 598.4170000000001 516.6709999999999 C 598.3710000000001 515.752 598.2580000000002 513.1999999999999 598.1670000000001 510.99999999999994 C 598.0050000000001 507.11999999999995 597.8940000000001 506.99999999999994 594.4680000000002 506.99999999999994 C 592.5250000000002 506.99999999999994 589.4090000000002 507.6379999999999 587.5430000000002 508.4169999999999 C 584.6150000000002 509.6409999999999 584.0760000000002 509.6409999999999 583.6070000000002 508.4169999999999 C 583.2040000000002 507.36799999999994 581.1110000000002 506.99999999999994 575.5480000000002 506.99999999999994 L 568.0340000000002 506.99999999999994 L 565.5170000000002 511.9669999999999 M 673 507.692 C 663.417 509.3 657.879 514.399 655.461 523.841 C 650.014 545.116 665.198 560.585 685.586 554.53 C 694.8820000000001 551.77 695.294 550.449 689.432 542.189 C 689.311 542.0179999999999 686.544 542.429 683.285 543.102 C 673.323 545.16 668 541.107 668 531.4639999999999 C 668 522.511 672.119 518.5409999999999 680.761 519.165 C 685.262 519.4889999999999 685.502 519.362 688.3249999999999 515.17 C 691.6959999999999 510.16299999999995 691.3689999999999 509.604 684.2009999999999 508.10699999999997 C 678.8359999999999 506.986 677.4999999999999 506.93699999999995 672.9999999999999 507.69199999999995 M 619.2629999999999 531.786 C 620.0569999999999 540.7959999999999 621.7819999999999 543 628.0419999999999 543 C 632.983 543 633.031 542.97 632.3899999999999 540.25 C 632.0329999999999 538.737 631.4619999999999 537.241 631.1209999999999 536.925 C 630.7789999999999 536.608 627.8469999999999 533.9079999999999 624.6049999999999 530.925 L 618.7099999999999 525.5 L 619.2629999999999 531.786 M 414.5 534.724 C 406.775 536.623 408.949 544.253 417.262 544.418 C 420.867 544.489 421.538 544.1560000000001 422.351 541.89 C 424.587 535.659 421.639 532.9689999999999 414.5 534.7239999999999 M 756.571 548.5709999999999 C 754.489 550.6539999999999 754.529 551.2549999999999 757.922 568.579 C 763.782 598.496 764.062 608 759.0840000000001 608 C 758.0070000000001 608 750.235 604.316 741.8130000000001 599.814 C 710.026 582.821 709 582.4 706.2 585.2 C 703.043 588.3570000000001 706.4390000000001 592.3280000000001 716.5 597.24 C 723.549 600.682 751.296 615.145 752.5 616.004 C 756.811 619.083 766.292 616.375 770.248 610.936 C 773.811 606.038 773.0920000000001 593.263 767.945 570 C 766.7890000000001 564.775 765.445 558.09 764.957 555.145 C 763.653 547.266 760.415 544.728 756.571 548.571" stroke-linecap="round" />
</g>
</g>
</g>
</svg>