<!DOCTYPE svg PUBLIC "-//W3C//DTD SVG 1.1//EN" "http://www.w3.org/Graphics/SVG/1.1/DTD/svg11.dtd">
<svg xmlns="http://www.w3.org/2000/svg" viewBox="0 0 1000 1000">
<path fill="#fbfbfb" stroke="#fbfbfb" d="M691.898 412.25c-4.676 3.096-28.543 50.044-27.518 54.129.726 2.892 4.918 4.554 7.452 2.955.838-.528 6.848-11.573 13.356-24.545 6.509-12.971 12.57-23.866 13.469-24.211 3.345-1.284 6.119 2.708 17.343 24.96 6.325 12.54 12.264 23.268 13.197 23.842 2.548 1.566 7.228-.393 7.628-3.193.541-3.78-23.212-50.618-27.219-53.674-4.47-3.409-12.771-3.533-17.708-.263m-47.015 59.237c-3.639.736-11.364 1.816-17.167 2.4-30.578 3.077-36.91 7.015-35.896 22.326.12 1.802 2.28 4.957 6.43 9.391l6.25 6.677.5 16.151.5 16.152 3.277 4.135c4.031 5.089 9.473 7.32 18.498 7.584 3.695.109 6.695.646 6.68 1.197-.014.55-.687 5.05-1.496 10-5.507 33.728-5.741 39.131-1.907 44.157 6.278 8.231 11.818 8.302 26.871.341a5721.8 5721.8 0 0 1 23.586-12.383c17.179-8.958 19.508-11.806 12.744-15.582-2.69-1.501-3.256-1.273-27.023 10.874-31.651 16.176-30.685 16.465-26.28-7.871 1.347-7.445 3.2-18.036 4.117-23.536.918-5.5 2.074-10.507 2.57-11.126.497-.62.781-10.97.633-23l-.27-21.874-7.75-.292-7.75-.292v16.783l-5.923-5.6c-3.429-3.241-6.061-6.627-6.25-8.04-.237-1.766-1.179-2.66-3.411-3.235-3.332-.859-14.416-11.695-14.416-14.095 0-4.058 6.174-5.889 27.954-8.287 24.579-2.706 30.046-4.305 30.046-8.787 0-4.291-6.14-5.984-15.117-4.168m98.103.235c-2.49 1.744-2.561 5.448-.147 7.633 1.82 1.647 5.045 2.205 35.599 6.162 16.915 2.19 19.507 3.21 19.547 7.691.015 1.757-14.565 16.937-28.172 29.33-8.161 7.432-10.081 10.562-8.718 14.212.638 1.707 1.633 2.249 4.123 2.246 4.36-.005 40.491-34.313 43.16-40.982 2.501-6.251.465-12.952-5.378-17.7-2.488-2.022-18.663-5.405-33-6.901-7.425-.775-16.094-1.786-19.264-2.246-4.388-.636-6.238-.504-7.75.555M327.5 488.87c-10.02 2.657-15.5 9.438-15.5 19.179 0 9.458 4.825 15.135 16.5 19.415 10.372 3.803 12.751 7.376 8.045 12.081-2.943 2.944-9.414 3.309-17.136.966-2.7-.819-5.175-1.494-5.499-1.5-.901-.017-3.183 10.324-2.768 12.539.864 4.61 19.748 7.159 28.982 3.911 10.933-3.845 15.677-9.842 15.988-20.211.314-10.477-4.459-16.083-17.824-20.935-8.313-3.017-9.288-3.803-9.288-7.488 0-5.261 5.877-6.416 17.158-3.373 2.389.644 2.932.249 5.367-3.907 3.873-6.607 3.716-7.551-1.525-9.175-5.538-1.716-18.445-2.578-22.5-1.502m168.73.047c-15.24 3.91-20.491 23.499-8.901 33.209 1.194 1 6.117 3.474 10.94 5.497 18.238 7.649 9.489 18.652-10.186 12.809-6.283-1.866-5.613-2.355-7.179 5.243-1.611 7.815-.941 8.714 7.711 10.347 24.034 4.535 41.521-8.589 36.333-27.269-1.564-5.633-7.014-10.249-16.328-13.83-9.521-3.66-10.62-4.425-10.62-7.39 0-5.172 7.775-7.47 15.427-4.561 1.487.566 3.274 1.028 3.972 1.028 1.473 0 6.589-9.868 5.962-11.501-1.061-2.766-20.373-5.316-27.131-3.582m199.478 6.605c-3.404 6.942-3.383 7.478.292 7.478h3v53.084l7.75-.292 7.75-.292.288-10.5.288-10.5 6.059 10.75 6.059 10.75h7.903c5.17 0 7.903-.388 7.903-1.121 0-.616-2.925-6.305-6.5-12.641s-6.5-11.902-6.5-12.369c0-.466 2.475-5.279 5.5-10.695 7.121-12.749 7.217-12.316-2.652-11.964l-8.152.29-4.425 8.84c-2.433 4.862-4.596 8.668-4.806 8.459-.21-.21-.442-7.523-.516-16.252-.17-19.933.491-18.547-8.848-18.547h-7.684l-2.709 5.522M366.2 494.2c-.66.66-1.2 3.585-1.2 6.5 0 4.987-.148 5.3-2.5 5.3-2.429 0-2.5.2-2.5 7 0 6.705.1 7 2.379 7 2.353 0 2.384.138 2.816 12.25.693 19.439 4.831 24.397 20.137 24.129 7.018-.123 8.733-1.021 8.101-4.24-.178-.901-.593-3.326-.923-5.389-.585-3.652-.712-3.75-4.855-3.75-6.167 0-6.655-.927-6.655-12.63 0-9.763.1-10.246 2.19-10.55 2.414-.353 9.37-11.104 8.303-12.832-.336-.543-2.834-.988-5.552-.988H381v-5.3c0-2.915-.54-5.84-1.2-6.5-1.558-1.558-12.042-1.558-13.6 0m169.508-.574c-.39.389-.708 3.302-.708 6.474 0 5.548-.104 5.779-2.75 6.084-2.685.309-2.75.468-2.75 6.816s.065 6.507 2.75 6.816l2.75.317v11.851c0 15.131 1.617 19.638 8.093 22.558 8.018 3.615 20.725 2.031 19.517-2.433-.239-.885-.72-3.296-1.068-5.359-.615-3.647-.75-3.75-4.887-3.75-6.172 0-6.655-.921-6.655-12.7V520h2.486c2.033 0 3.034-1.086 5.5-5.971 3.974-7.873 3.926-8.029-2.438-8.029h-5.453l-.297-6.25-.298-6.25-6.542-.291c-3.599-.16-6.861.028-7.25.417M407 507.174c-8.286 1.182-8.53 1.492-6.549 8.305l1.651 5.68 4.113-.695c5.806-.981 11.332-.777 13.732.508 3.394 1.816 2.352 2.521-3.944 2.666-15.635.362-24.249 12.119-17.94 24.486 3.92 7.683 17.497 10.786 31.437 7.185l7-1.809.293-15.5c.348-18.403-.567-22.844-5.556-26.956-5.755-4.744-11.585-5.675-24.237-3.87m37.738-.087c-1.726 1.005-6.738 9.842-6.738 11.88 0 .568 1.575 1.033 3.5 1.033h3.5v36.088l7.25-.294 7.25-.294.57-15.223c.658-17.562 1.184-18.751 8.795-19.872 5.521-.813 6.1-1.518 6.12-7.455.023-7.036-3.082-8.607-10.711-5.42-3.286 1.373-3.749 1.373-4.517 0-1.007-1.799-12.126-2.127-15.019-.443m120.276 4.884c-3.801 7.531-3.773 8.029.455 8.029h3.469l-.287 16.75c-.356 20.826-1.007 19.25 7.956 19.25H584v-14.435c0-19.286 1.236-21.565 11.695-21.565h3.396l-.295-6.75-.296-6.75-3.652-.305c-2.008-.167-5.237.358-7.174 1.168-3.027 1.265-3.6 1.272-4.067.054-.403-1.049-2.496-1.417-8.061-1.417h-7.517l-3.015 5.971m107.17-4.878C644.465 512.395 648.848 557 677.088 557c3.989 0 13.1-3.042 16.195-5.407 2.568-1.962-2.621-10.948-5.783-10.016-9.661 2.848-16.26 1.001-18.399-5.149-3.323-9.551 1.23-16.428 10.876-16.428h6.067l2.947-4.646c1.62-2.556 2.716-5.019 2.435-5.473-1.348-2.182-13.333-3.918-19.242-2.788M620 531.876c0 7.848 3.892 12.121 9.711 10.66 3.769-.946 2.65-3.774-3.711-9.373l-6-5.281v3.994m-204.272 2.833c-7.77 1.2-6.533 8.533 1.467 8.701l4.305.09v-4.486c0-4.787-.456-5.127-5.772-4.305M756.75 547.08c-2.22 1.293-2.375 9.651-.328 17.776.782 3.104 2.155 10.594 3.053 16.644.897 6.05 2.009 13.222 2.471 15.937 1.838 10.802-1.789 11.933-14.642 4.563-4.796-2.75-9.106-5-9.578-5-.471 0-4.54-2.16-9.042-4.8-15.695-9.204-21.309-10.638-23.756-6.065-2.027 3.787 1.3 6.241 26.063 19.216 27.141 14.222 28.881 14.698 35.689 9.766 8.197-5.938 8.328-14.355.806-51.617-3.399-16.834-5.226-19.629-10.736-16.42" fill-rule="evenodd"/>
<path fill="#38506c" stroke="#38506c" d="M696.728 411.001c-5.982 1.097-7.924 3.844-20.241 28.631-12.912 25.986-13.66 28.868-7.487 28.868 3.495 0 3.509-.018 10.217-13.5 17.616-35.407 19.232-37.675 24.383-34.235 1.125.752 11.71 21.197 17.436 33.681 5.588 12.182 7.579 14.72 11.264 14.364 5.743-.556 4.948-3.414-8.254-29.677-14.232-28.312-16.062-30.196-27.318-28.132M646 472.084c-1.925.484-9.8 1.562-17.5 2.396-29.117 3.154-36.485 6.755-36.496 17.836-.005 4.928 1.118 6.968 7.632 13.86l5.364 5.676v12.131c0 24.474 4.626 31.012 22.19 31.362 4.473.089 7.777.582 7.746 1.155-.03.55-.474 3.25-.985 6-1.152 6.191-1.169 6.308-4.974 33.206-1.71 12.089 1.163 18.231 9.892 21.147 4.846 1.619 6.2 1.09 31.89-12.46 25.745-13.579 26.313-13.967 25.137-17.145-2.018-5.455-4.244-4.796-30.396 9.013-29.128 15.379-30.45 15.004-26.043-7.39 1.338-6.804 2.922-15.971 3.519-20.371.597-4.4 1.609-9.8 2.249-12 .672-2.312 1.307-13.388 1.505-26.25l.343-22.25h-15.204l.219 7.496c.121 4.122-.026 7.61-.325 7.75-1.191.556-12.763-11.342-12.763-13.123 0-1.22-.939-2.142-2.609-2.561-2.7-.678-12.814-9.615-14.548-12.855-1.468-2.744 1.403-6.436 5.904-7.593 2.064-.531 9.378-1.691 16.253-2.58 6.875-.888 15.993-2.072 20.263-2.631 9.896-1.295 13.497-2.57 14.286-5.058 1.499-4.723-4.16-6.869-12.549-4.761m97.2.116c-1.935 1.935-1.393 5.633 1.05 7.163 2.202 1.378 11.762 2.979 24.75 4.145 6.68.599 23.133 3.171 26.251 4.104 2.387.714 4.001 4.017 3.199 6.545-.681 2.145-13.435 15.208-28.742 29.439-8.946 8.317-10.207 10.762-7.137 13.833 2.776 2.776 4.286 1.811 19.234-12.297 28.757-27.14 30.464-29.878 24.723-39.674-3.711-6.333-12.99-9.236-35.028-10.961-4.95-.387-12.067-1.332-15.815-2.1-8.344-1.71-10.931-1.751-12.485-.197M328 489.406c-7.639 2.877-8.774 3.536-11.339 6.585-3.512 4.174-4.277 7.408-3.844 16.259.261 5.338 5.669 10.437 15.076 14.214 12.217 4.906 14.241 7.554 9.946 13.013-2.139 2.72-2.252 2.742-11.25 2.21-4.999-.296-9.967-.684-11.041-.863-2.349-.39-5.249 9.627-3.424 11.826 2.688 3.238 20.06 4.375 28.511 1.866 19.405-5.763 20.779-29.346 2.18-37.421-13.287-5.769-13.766-6.052-14.375-8.477-1.399-5.575 2.941-8.345 11.364-7.254 2.583.335 5.73.727 6.993.872 1.808.208 2.867-.734 4.977-4.425 3.229-5.648 3.271-5.597-6.486-7.932-9.111-2.18-12.509-2.273-17.288-.473m171.19-.36c-11.225 2.266-17.145 8.95-17.174 19.392-.023 8.477 2.372 11.647 12.557 16.62 4.44 2.168 8.518 3.942 9.061 3.942 1.903 0 5.366 4.099 5.366 6.35 0 5.292-3.406 6.921-13.394 6.408-5.008-.258-9.852-.791-10.764-1.185-1.513-.654-4.842 7.07-4.842 11.233 0 3.425 20.382 5.388 29.233 2.815 13.514-3.929 19.83-18.693 12.837-30.007-2.145-3.471-6.386-5.994-19.283-11.468-5.967-2.533-7.246-5.957-3.659-9.796 2.454-2.626 3.55-2.7 16.818-1.138 2.366.279 6.989-5.522 7.038-8.83.037-2.565-17.098-5.687-23.794-4.336m199.053 3.204c-.55.688-1.965 3.163-3.142 5.5l-2.142 4.25H699v23.375c0 12.856.281 24.781.625 26.5l.625 3.125H714v-11c0-6.05.337-10.999.75-10.998.413.002 2.067 2.589 3.676 5.75 1.609 3.162 4.302 8.11 5.984 10.998l3.057 5.25h7.267c3.996 0 7.266-.275 7.266-.612 0-.639-4.369-8.841-9.935-18.65l-3.269-5.761 5.99-10.989L740.775 508h-15.757l-5.259 10.25-5.259 10.25-.272-18.75-.272-18.75H706.6c-4.683 0-7.719.454-8.357 1.25m-331.745 3c-.241.688-.565 3.5-.718 6.25-.242 4.322-.585 5.043-2.53 5.32-1.919.272-2.272.971-2.4 4.75-.083 2.436-.195 4.993-.25 5.68-.055.688 1.086 1.387 2.536 1.555l2.636.306.418 13.194c.641 20.255 5.36 25.283 21.694 23.116l4.952-.657-.483-3.632c-1.038-7.814-.972-7.717-5.067-7.38-6.288.517-6.648-.187-6.721-13.133-.065-11.503-.058-11.535 2.376-11.827 1.664-.199 3.312-1.726 5.172-4.792 3.894-6.42 3.719-7-2.113-7h-5l-.014-4.25c-.026-8.301-.418-8.75-7.634-8.75-4.231 0-6.564.426-6.854 1.25m169.3 5c-.283 5.928-.434 6.266-2.946 6.557-4.96.574-4.944 11.813.017 12.388l2.631.305.5 14c.686 19.196 2.869 21.989 17.2 21.996 8.058.005 8.709-.569 7.916-6.979l-.616-4.982-4.075.296c-5.72.416-6.277-.727-6.501-13.362-.193-10.929-.185-10.97 2.236-11.266 1.805-.22 3.271-1.827 5.702-6.25l3.273-5.953H550v-4.918c0-7.738-.321-8.082-7.559-8.082h-6.346l-.297 6.25m-131.136 7.992-4.838 1.007.653 3.482c1.337 7.126 2.188 8.347 5.058 7.256 6.334-2.408 16.475-.684 16.456 2.798-.008 1.425-1.115 1.747-6.541 1.902-12.433.356-18.949 6.207-18.238 16.378.551 7.88 3.336 11.457 10.557 13.556 5.76 1.675 17.78 1.457 24.731-.448l3-.823V515.843l-3.656-3.348c-5.797-5.31-15.098-6.765-27.182-4.253m39.114.508c-1.853 2.113-4.776 7.744-4.776 9.2 0 .578 1.34 1.05 2.977 1.05h2.977l.273 17.75.273 17.75 6.625.293 6.625.293.427-15.018c.503-17.71 1.317-19.398 9.922-20.582l4.901-.674V507l-3.75.006c-2.062.004-5.088.704-6.722 1.556-2.687 1.401-3.082 1.4-4.111-.006-1.701-2.326-13.561-2.179-15.641.194m121.741 3.217c-3.204 6.322-3.164 6.84.549 7.22l3.066.313.142 17.79.141 17.789 7.043-.289 7.042-.29.211-13.5c.115-7.425.242-14.175.281-15 .152-3.201 3.075-5.375 8.749-6.508 4.322-.863 5.738-1.567 5.676-2.821-.046-.919-.159-3.471-.25-5.671-.162-3.88-.273-4-3.699-4-1.943 0-5.059.638-6.925 1.417-2.928 1.224-3.467 1.224-3.936 0-.403-1.049-2.496-1.417-8.059-1.417h-7.514l-2.517 4.967M673 507.692c-9.583 1.608-15.121 6.707-17.539 16.149-5.447 21.275 9.737 36.744 30.125 30.689 9.296-2.76 9.708-4.081 3.846-12.341-.121-.171-2.888.24-6.147.913-9.962 2.058-15.285-1.995-15.285-11.638 0-8.953 4.119-12.923 12.761-12.299 4.501.324 4.741.197 7.564-3.995 3.371-5.007 3.044-5.566-4.124-7.063-5.365-1.121-6.701-1.17-11.201-.415m-53.737 24.094c.794 9.01 2.519 11.214 8.779 11.214 4.941 0 4.989-.03 4.348-2.75-.357-1.513-.928-3.009-1.269-3.325-.342-.317-3.274-3.017-6.516-6l-5.895-5.425.553 6.286M414.5 534.724c-7.725 1.899-5.551 9.529 2.762 9.694 3.605.071 4.276-.262 5.089-2.528 2.236-6.231-.712-8.921-7.851-7.166m342.071 13.847c-2.082 2.083-2.042 2.684 1.351 20.008 5.86 29.917 6.14 39.421 1.162 39.421-1.077 0-8.849-3.684-17.271-8.186C710.026 582.821 709 582.4 706.2 585.2c-3.157 3.157.239 7.128 10.3 12.04 7.049 3.442 34.796 17.905 36 18.764 4.311 3.079 13.792.371 17.748-5.068 3.563-4.898 2.844-17.673-2.303-40.936-1.156-5.225-2.5-11.91-2.988-14.855-1.304-7.879-4.542-10.417-8.386-6.574" fill-rule="evenodd"/>
</svg>